<?xml version="1.0" encoding="utf-8"?>
<!-- Generator: Adobe Illustrator 22.0.0, SVG Export Plug-In . SVG Version: 6.00 Build 0)  -->
<svg version="1.1" id="Calque_1" xmlns="http://www.w3.org/2000/svg" xmlns:xlink="http://www.w3.org/1999/xlink" x="0px" y="0px"
	 viewBox="0 0 20 20" style="enable-background:new 0 0 20 20;" xml:space="preserve">
<style type="text/css">
	.st0{fill:none;}
	.st1{fill:#BFBFBF;}
</style>
<rect y="0" class="st0" width="20" height="20"/>
<g>
	<path class="st1" d="M2.2,1h15.5C18.4,1,19,1.6,19,2.3v15.5c0,0.7-0.6,1.2-1.2,1.2H2.2C1.6,19,1,18.4,1,17.8V2.3C1,1.6,1.6,1,2.2,1
		z M17,17V3H3v14H17z M10,6c0-1.1-0.9-2-2-2S6,4.9,6,6s0.9,2,2,2S10,7.1,10,6z M13,11c0,0,0-6,3-6v10c0,0.6-0.4,1-1,1H5
		c-0.6,0-1-0.4-1-1V8c2,0,3,4,3,4s1-3,3-3S13,11,13,11z"/>
</g>
</svg>
